<svg width="26" height="26" viewBox="0 0 26 26" fill="none" xmlns="http://www.w3.org/2000/svg">
<rect x="13" y="1.68628" width="15" height="15" transform="rotate(45 13 1.68628)" fill="#232A43"/>
<path fill-rule="evenodd" clip-rule="evenodd" d="M18.3097 13.715L13.7142 18.3138C13.3965 18.6307 12.8822 18.6307 12.5653 18.3138C12.2476 17.9969 12.2476 17.4769 12.5653 17.16L15.9136 13.8125L7.3125 13.8125C6.86319 13.8125 6.5 13.4469 6.5 13C6.5 12.5531 6.86319 12.1875 7.3125 12.1875L15.9136 12.1875L12.5653 8.84C12.2476 8.52313 12.2476 8.01122 12.5653 7.68622C12.8822 7.36934 13.3965 7.36934 13.7142 7.68622L18.3097 12.285C18.5047 12.48 18.5656 12.7481 18.5209 13C18.5656 13.2519 18.5047 13.52 18.3097 13.715ZM13 2.84124e-07C5.81994 1.27199e-07 -1.27146e-07 5.8175 -2.84124e-07 13C-4.41103e-07 20.1825 5.81994 26 13 26C20.1801 26 26 20.1825 26 13C26 5.8175 20.1801 4.41049e-07 13 2.84124e-07Z" fill="#F4F4F9"/>
</svg>
