<svg width="16" height="16" viewBox="0 0 33 32" fill="none" xmlns="http://www.w3.org/2000/svg">
<path fill-rule="evenodd" clip-rule="evenodd" d="M32 16.5C32 25.3365 24.8365 32.5 16 32.5C7.16344 32.5 0 25.3365 0 16.5C0 7.66344 7.16344 0.5 16 0.5C24.8365 0.5 32 7.66344 32 16.5ZM22.4485 11.6515C22.9171 12.1201 22.9171 12.8799 22.4485 13.3485L14.4485 21.3485C13.9798 21.8171 13.2202 21.8171 12.7515 21.3485L9.55147 18.1485C9.08285 17.6798 9.08285 16.9202 9.55147 16.4515C10.0201 15.9829 10.7799 15.9829 11.2485 16.4515L13.6 18.8029L17.1757 15.2272L20.7515 11.6515C21.2202 11.1828 21.9798 11.1828 22.4485 11.6515Z" fill="#00C49A"/>
</svg>
