<svg width="16" height="16" viewBox="0 0 16 16" fill="none" xmlns="http://www.w3.org/2000/svg">
<path fill-rule="evenodd" clip-rule="evenodd" d="M10.8285 10.12C11.024 10.315 11.024 10.635 10.8285 10.83C10.6335 11.025 10.3165 11.025 10.121 10.83L8.00299 8.71002L5.87 10.845C5.673 11.04 5.35401 11.04 5.15701 10.845C4.96051 10.645 4.96051 10.325 5.15701 10.13L7.29001 7.995L5.172 5.88C4.9765 5.685 4.9765 5.36498 5.172 5.16998C5.3665 4.97498 5.6835 4.97498 5.879 5.16998L7.99701 7.28998L10.146 5.14001C10.343 4.94501 10.6615 4.94501 10.8585 5.14001C11.055 5.34001 11.055 5.65498 10.8585 5.85498L8.70999 8.005L10.8285 10.12ZM8 0C3.5815 0 0 3.58 0 8C0 12.42 3.5815 16 8 16C12.4185 16 16 12.42 16 8C16 3.58 12.4185 0 8 0Z" fill="#232A43"/>
</svg>
