<svg width="40" height="40" viewBox="0 0 40 40" fill="none" xmlns="http://www.w3.org/2000/svg">
<path fill-rule="evenodd" clip-rule="evenodd" d="M0 6C0 2.6863 2.6863 0 6 0H34C37.3138 0 40 2.6863 40 6V8.34314C40 9.93444 39.3678 11.4606 38.2426 12.5858L26.5858 24.2426C26.2108 24.6178 26 25.1264 26 25.6568V30.3432C26 31.9344 25.3678 33.4606 24.2426 34.5858L19.8386 38.9898C17.684 41.1444 14 39.6184 14 36.5714V25.6568C14 25.1264 13.7893 24.6178 13.4142 24.2426L1.75736 12.5858C0.63214 11.4606 0 9.93444 0 8.34314V6Z" fill="#232A43"/>
</svg>
