<svg width="32" height="32" viewBox="0 0 32 32" fill="none" xmlns="http://www.w3.org/2000/svg">
<path d="M24.0099 14.8314C23.8747 14.7653 23.7374 14.7017 23.5983 14.6409C23.3561 10.0897 20.9172 7.48417 16.822 7.4575C16.8034 7.45738 16.785 7.45738 16.7664 7.45738C14.317 7.45738 12.2798 8.52348 11.0259 10.4635L13.2782 12.0388C14.2148 10.5897 15.6849 10.2808 16.7675 10.2808C16.78 10.2808 16.7926 10.2808 16.8049 10.2809C18.1533 10.2897 19.1708 10.6894 19.8294 11.469C20.3086 12.0366 20.6292 12.8208 20.7879 13.8106C19.5924 13.6035 18.2995 13.5397 16.9173 13.6205C13.0238 13.8492 10.5207 16.1647 10.6888 19.382C10.7741 21.014 11.5715 22.418 12.9339 23.3352C14.0858 24.1105 15.5695 24.4897 17.1114 24.4038C19.1476 24.29 20.7451 23.4978 21.8595 22.0493C22.7059 20.9493 23.2412 19.5238 23.4775 17.7277C24.448 18.3248 25.1672 19.1107 25.5643 20.0553C26.2397 21.6612 26.2791 24.3 24.1675 26.4513C22.3173 28.336 20.0934 29.1513 16.7323 29.1765C13.0041 29.1483 10.1844 27.9292 8.35118 25.5528C6.63448 23.3277 5.74729 20.1137 5.71419 16C5.74729 11.8863 6.63448 8.67227 8.35118 6.44712C10.1844 4.07082 13.004 2.85167 16.7323 2.82342C20.4876 2.85188 23.3564 4.0769 25.2598 6.46467C26.1932 7.6356 26.8968 9.10813 27.3607 10.8251L30 10.107C29.4377 7.9937 28.5529 6.17262 27.3489 4.66233C24.9087 1.60111 21.3399 0.0325247 16.7415 0H16.7231C12.1341 0.0324117 8.60518 1.60697 6.23448 4.67988C4.12487 7.4144 3.03668 11.2193 3.00011 15.9888L3 16L3.00011 16.0113C3.03668 20.7807 4.12487 24.5857 6.23448 27.3202C8.60518 30.393 12.1341 31.9677 16.7231 32H16.7415C20.8214 31.9712 23.6972 30.882 26.0663 28.4685C29.1659 25.311 29.0726 21.3532 28.051 18.9235C27.318 17.1812 25.9207 15.766 24.0099 14.8314ZM16.9656 21.5845C15.2591 21.6825 13.4863 20.9015 13.3989 19.2287C13.3341 17.9883 14.2646 16.6043 17.0703 16.4395C17.3916 16.4206 17.7069 16.4113 18.0167 16.4113C19.0358 16.4113 19.9893 16.5123 20.8561 16.7055C20.5327 20.8225 18.6363 21.491 16.9656 21.5845Z" fill="#000000"/>
</svg>
