<svg width="32" height="32" viewBox="0 0 32 32" fill="none" xmlns="http://www.w3.org/2000/svg">
<g clip-path="url(#clip0_213_2063)">
<path d="M21.3829 3.89075C23.5012 1.76431 26.5996 1.71965 28.3149 3.44158C30.0333 5.16674 29.9871 8.28463 27.8674 10.4125L24.2879 14.0059C23.8563 14.4393 23.8576 15.1407 24.2909 15.5723C24.7243 16.004 25.4257 16.0027 25.8573 15.5692L29.4368 11.9759C32.2594 9.1423 32.6139 4.61836 29.8843 1.87822C27.1514 -0.865169 22.6376 -0.507615 19.8135 2.3274L12.6545 9.51422C9.83189 12.3478 9.47751 16.8718 12.207 19.6118C12.6387 20.0453 13.3401 20.0466 13.7734 19.6149C14.2068 19.1833 14.2081 18.4819 13.7765 18.0485C12.058 16.3234 12.1043 13.2055 14.2239 11.0776L21.3829 3.89075Z" fill="#000000"/>
<path d="M19.5464 12.1413C19.1147 11.7079 18.4134 11.7066 17.9799 12.1383C17.5466 12.57 17.5453 13.2713 17.977 13.7046C19.6954 15.4298 19.6492 18.5477 17.5295 20.6756L10.3705 27.8625C8.2523 29.9889 5.15384 30.0337 3.43859 28.3117C1.72008 26.5865 1.76637 23.4685 3.88603 21.3406L7.46557 17.7472C7.89729 17.3138 7.89593 16.6126 7.46255 16.1808C7.02916 15.7491 6.32786 15.7504 5.89616 16.1839L2.31662 19.7772C-0.506006 22.6109 -0.86038 27.1348 1.86916 29.875C4.60196 32.6184 9.11587 32.2608 11.9399 29.4258L19.0989 22.2389C21.9215 19.4054 22.276 14.8815 19.5464 12.1413Z" fill="#000000"/>
</g>
<defs>
<clipPath id="clip0_213_2063">
<rect width="32" height="32" fill="white"/>
</clipPath>
</defs>
</svg>
