<svg width="32" height="32" viewBox="0 0 32 32" fill="none" xmlns="http://www.w3.org/2000/svg">
<g clip-path="url(#clip0_213_2063)">
<path fill-rule="evenodd" clip-rule="evenodd" d="M32 32H25.6V20.8016C25.6 17.7296 24.2448 16.0156 21.8144 16.0156C19.1696 16.0156 17.6 17.8016 17.6 20.8016V32H11.2V11.2H17.6V13.5391C17.6 13.5391 19.608 10.0156 24.1328 10.0156C28.6592 10.0156 32 12.7778 32 18.493V32ZM3.9072 7.87344C1.7488 7.87344 0 6.11034 0 3.93594C0 1.76314 1.7488 0 3.9072 0C6.064 0 7.81279 1.76314 7.81279 3.93594C7.81439 6.11034 6.064 7.87344 3.9072 7.87344ZM0 32H8V11.2H0V32Z" fill="#000000"/>
</g>
<defs>
<clipPath id="clip0_213_2063">
<rect width="32" height="32" fill="white"/>
</clipPath>
</defs>
</svg>
