<svg width="32" height="32" viewBox="0 0 32 32" fill="none" xmlns="http://www.w3.org/2000/svg">
<g clip-path="url(#clip0_214_2077)">
<path fill-rule="evenodd" clip-rule="evenodd" d="M3.72096 16C3.72096 8.84658 9.38508 3.04761 16.3721 3.04761C23.3591 3.04761 29.0233 8.84658 29.0233 16C29.0233 23.1533 23.3591 28.9523 16.3721 28.9523C13.8832 28.9523 11.5665 28.2181 9.61188 26.9502C9.24811 26.7143 8.80235 26.6512 8.38972 26.7772L4.10447 28.0866L5.71793 24.2214C5.90863 23.7645 5.86983 23.2412 5.61395 22.8191C4.41407 20.8396 3.72096 18.505 3.72096 16ZM16.3721 0C7.74107 0 0.744218 7.16343 0.744218 16C0.744218 18.8009 1.44843 21.4374 2.68599 23.7298L0.119771 29.8773C-0.107089 30.4208 -0.00653183 31.0495 0.377781 31.4905C0.762093 31.9317 1.36085 32.1054 1.91403 31.9362L8.61084 29.8902C10.8985 31.2327 13.5497 31.9999 16.3721 31.9999C25.0032 31.9999 32 24.8365 32 16C32 7.16343 25.0032 0 16.3721 0ZM19.7842 19.3255L17.8282 20.7361C16.9121 20.2019 15.8992 19.4561 14.8833 18.416C13.8271 17.3347 13.0441 16.2183 12.4668 15.1943L13.7098 14.1141C14.2433 13.6506 14.3893 12.869 14.0607 12.2366L12.4768 9.18898C12.2635 8.7786 11.8789 8.49034 11.4324 8.40614C10.9859 8.32195 10.5262 8.45103 10.1841 8.75669L9.71455 9.17628C8.58527 10.1853 7.9174 11.8435 8.47094 13.5224C9.04481 15.2629 10.2695 18.0022 12.7784 20.5709C15.4777 23.3345 18.2196 24.4228 19.823 24.8455C21.1149 25.1859 22.3375 24.7295 23.199 24.0109L24.0793 23.2764C24.4559 22.9624 24.6591 22.4798 24.6236 21.9838C24.5881 21.4878 24.3184 21.0407 23.901 20.7861L21.4031 19.2623C20.8985 18.9546 20.2645 18.9793 19.7842 19.3255Z" fill="black"/>
</g>
<defs>
<clipPath id="clip0_214_2077">
<rect width="32" height="32" fill="white"/>
</clipPath>
</defs>
</svg>
